<?xml version="1.0" standalone="no"?>
<!DOCTYPE svg PUBLIC "-//W3C//DTD SVG 20010904//EN"
 "http://www.w3.org/TR/2001/REC-SVG-20010904/DTD/svg10.dtd">
<svg version="1.0" xmlns="http://www.w3.org/2000/svg"
 width="460.000000pt" height="460.000000pt" viewBox="0 0 460.000000 460.000000"
 preserveAspectRatio="xMidYMid meet">
<metadata>
Created by potrace 1.14, written by Peter Selinger 2001-2017
</metadata>
<g transform="translate(0.000000,460.000000) scale(0.100000,-0.100000)"
fill="#000000" stroke="none">
<path d="M1105 3907 c-152 -121 -309 -295 -402 -446 -27 -45 -123 -237 -123
-248 0 -4 -25 -23 -55 -42 -105 -64 -324 -266 -420 -385 -22 -28 -55 -67 -73
-87 -32 -36 -33 -40 -30 -115 l3 -78 60 82 c87 120 115 153 250 288 150 151
268 232 525 359 285 142 635 220 1007 224 90 1 163 0 163 -2 0 -3 -7 -21 -16
-42 -8 -20 -18 -71 -22 -114 l-7 -76 -183 -1 c-101 -1 -215 -6 -255 -13 -40
-6 -101 -15 -137 -20 -36 -5 -78 -14 -95 -20 -16 -6 -67 -22 -113 -36 -118
-36 -342 -139 -342 -157 0 -5 -4 -8 -9 -8 -16 0 -111 -66 -174 -122 -239 -209
-355 -394 -438 -698 -34 -126 -45 -368 -21 -491 l9 -46 -46 -1 c-62 -2 -137
-21 -151 -37 -6 -7 -10 -34 -8 -59 l3 -46 53 25 c120 56 278 11 345 -99 l30
-48 2 -252 c2 -225 4 -258 24 -323 32 -107 93 -162 124 -112 7 12 3 39 -17 98
-14 45 -26 96 -26 114 0 30 2 29 102 -70 146 -144 289 -263 315 -263 4 0 14
-6 22 -14 35 -31 228 -130 351 -179 232 -94 477 -141 726 -140 130 0 182 14
296 74 51 27 100 52 108 56 13 6 83 59 135 104 48 41 145 145 145 155 0 24
108 109 166 132 127 49 225 18 292 -90 55 -89 29 -311 -46 -394 -9 -11 -31
-35 -47 -54 -17 -19 -41 -36 -54 -38 -13 -1 -34 -11 -48 -22 -14 -11 -31 -20
-38 -20 -7 0 -18 -7 -25 -15 -6 -8 -15 -14 -18 -13 -4 1 -20 -4 -35 -10 -16
-7 -36 -12 -46 -12 -10 0 -21 -3 -24 -6 -4 -4 -20 -8 -37 -9 -31 -3 -60 -20
-60 -36 0 -5 52 -9 115 -9 97 0 120 3 147 20 18 11 44 20 58 20 14 0 34 6 45
13 11 7 40 19 64 26 62 18 193 80 276 130 201 122 402 319 508 497 31 52 54
97 108 219 25 57 63 202 80 305 31 190 22 402 -24 605 -14 59 -13 60 13 95 61
79 92 204 92 372 0 246 -73 619 -132 673 -33 30 -197 47 -405 42 -104 -3 -213
-10 -242 -17 -51 -13 -52 -13 -95 19 -38 28 -44 38 -56 94 -7 34 -17 89 -21
123 -23 177 -204 383 -407 465 -153 62 -278 76 -416 48 -107 -21 -198 -68
-293 -149 l-70 -60 -71 3 c-83 4 -94 10 -94 43 0 45 -136 162 -320 276 -61 37
-290 108 -351 108 -39 0 -53 -8 -124 -63z m286 -67 c135 -43 264 -120 370
-221 58 -54 73 -76 45 -66 -8 3 -69 2 -136 -3 l-123 -9 -29 30 c-48 48 -111
86 -176 108 -105 36 -145 27 -218 -51 -48 -51 -91 -113 -128 -185 -18 -36 -32
-53 -46 -53 -10 0 -21 -4 -24 -9 -3 -5 -18 -12 -32 -15 -14 -4 -62 -24 -105
-46 -43 -21 -79 -37 -79 -34 0 9 52 96 104 174 76 114 157 210 253 299 153
139 135 129 201 115 31 -7 87 -22 123 -34z m1306 -175 c34 -8 97 -33 139 -55
194 -101 304 -239 339 -423 25 -131 17 -190 -41 -312 -84 -178 -272 -288 -494
-287 -233 0 -442 117 -537 301 -46 88 -42 101 15 51 108 -96 230 -128 378 -98
67 13 165 66 206 112 33 36 34 47 10 69 -17 15 -22 14 -72 -18 -107 -66 -138
-76 -231 -76 -69 1 -97 6 -140 25 -97 44 -137 84 -184 181 -30 62 -28 224 4
285 44 83 177 190 283 227 97 34 227 41 325 18z m-779 -541 c27 -4 32 -9 32
-33 0 -16 11 -70 24 -119 41 -162 133 -285 277 -374 123 -77 187 -93 369 -93
149 0 158 1 249 33 51 18 110 44 130 57 19 14 41 25 49 25 17 0 126 -110 183
-185 48 -64 159 -230 159 -238 0 -3 13 -34 29 -69 16 -35 37 -88 46 -118 9
-30 23 -71 30 -91 25 -66 45 -212 45 -324 0 -277 -77 -517 -232 -727 -71 -96
-86 -108 -103 -85 -7 9 -16 17 -20 17 -4 0 -21 10 -38 23 -27 18 -47 22 -117
24 -72 2 -96 -2 -153 -25 -71 -28 -174 -109 -217 -169 -90 -129 -330 -303
-419 -303 -33 0 -48 -10 -52 -35 -4 -18 -12 -20 -99 -19 -112 1 -269 12 -325
24 -22 5 -74 15 -115 24 -162 33 -447 143 -560 216 -226 147 -371 269 -480
407 -73 91 -71 87 -71 191 0 131 -15 215 -51 284 -33 61 -68 93 -141 129 -27
13 -48 31 -51 43 -8 33 -26 217 -25 256 2 95 38 293 69 380 12 32 88 191 117
243 27 49 93 130 166 206 55 56 207 181 221 181 3 0 30 16 60 35 56 36 243
122 280 129 12 2 41 11 66 19 160 55 512 87 668 61z m1460 -259 c169 -157 222
-216 313 -350 98 -143 190 -316 219 -410 7 -22 16 -44 20 -50 25 -34 85 -264
105 -404 60 -413 -77 -839 -360 -1126 -121 -122 -306 -259 -396 -293 l-25 -10
24 48 c53 108 67 254 32 353 -11 31 -20 62 -20 70 0 7 18 30 40 52 21 22 39
45 40 51 0 7 6 14 13 17 8 3 22 20 31 39 9 18 26 47 37 63 33 51 105 207 122
265 44 149 71 311 62 379 -2 20 -7 77 -10 126 -3 50 -9 106 -15 125 -5 19 -10
48 -10 65 0 27 -36 147 -59 200 -123 276 -189 375 -389 581 -27 28 -24 47 14
88 29 31 84 137 84 162 0 8 5 24 11 36 12 23 4 28 117 -77z m604 46 c29 -9 39
-19 44 -39 3 -15 9 -36 14 -47 11 -27 38 -159 45 -220 3 -27 8 -57 10 -65 22
-79 22 -343 -1 -420 -9 -30 -18 -67 -21 -83 -8 -41 -18 -40 -32 1 -11 35 -35
93 -69 172 -18 41 -18 39 2 113 26 95 16 219 -29 357 -24 72 -75 91 -248 91
l-88 0 -69 72 c-69 72 -69 72 -42 79 43 11 443 2 484 -11z"/>
<path d="M1465 2328 c-55 -32 -85 -85 -85 -149 0 -65 22 -103 70 -119 97 -32
183 65 165 186 -11 74 -89 117 -150 82z"/>
<path d="M1890 2266 c-143 -31 -224 -121 -223 -247 1 -95 17 -129 103 -216
146 -147 420 -163 548 -32 46 47 63 82 69 145 22 208 -254 402 -497 350z m181
-80 c224 -68 316 -281 165 -384 -93 -64 -263 -56 -369 17 -101 69 -154 190
-116 264 17 32 61 77 76 77 7 0 13 4 13 8 0 28 159 40 231 18z"/>
<path d="M1903 2075 c-49 -35 -50 -126 -1 -144 47 -17 98 29 98 89 0 60 -50
88 -97 55z"/>
<path d="M2074 2007 c-38 -33 -40 -101 -3 -129 32 -24 71 -12 94 31 21 42 19
74 -8 99 -30 28 -49 28 -83 -1z"/>
<path d="M2562 1923 c-33 -7 -87 -67 -101 -114 -16 -54 1 -121 37 -149 34 -28
99 -26 133 3 36 30 69 94 69 135 0 52 -29 102 -66 118 -19 8 -37 13 -41 13 -4
-1 -18 -4 -31 -6z"/>
<path d="M1674 1646 c-13 -33 7 -85 46 -122 62 -59 156 -89 227 -74 32 8 39 6
55 -16 26 -33 83 -34 94 -2 5 16 1 27 -16 40 -23 19 -25 36 -14 101 l6 38 -33
-3 c-24 -2 -37 -10 -46 -28 -18 -37 -42 -50 -93 -50 -71 0 -133 39 -164 102
-14 28 -53 36 -62 14z"/>
<path d="M0 628 l0 -123 44 -59 c46 -60 47 -70 16 -116 -10 -14 -23 -42 -31
-62 -7 -21 -17 -38 -21 -38 -4 0 -8 -52 -8 -115 0 -113 0 -115 23 -115 20 0
25 9 41 76 20 88 77 237 106 276 27 37 25 50 -10 88 -30 32 -103 174 -135 263
-10 26 -19 47 -21 47 -2 0 -4 -55 -4 -122z"/>
<path d="M977 284 c-160 -25 -280 -73 -380 -152 -38 -31 -107 -110 -107 -124
0 -5 22 -8 50 -8 45 0 56 5 112 51 62 50 151 99 179 99 8 0 19 4 25 8 43 39
385 52 504 19 107 -29 226 -83 294 -131 62 -44 68 -46 133 -46 l68 0 -65 61
c-152 142 -360 221 -610 232 -74 4 -147 0 -203 -9z"/>
</g>
</svg>
